<svg width="166" height="170" viewBox="0 0 166 170" fill="none" xmlns="http://www.w3.org/2000/svg">
<path id="Ellipse 6" d="M85 170C69.3241 170 53.9535 165.665 40.5876 157.474C27.2217 149.284 16.3812 137.557 9.26444 123.589C2.14773 109.622 -0.967891 93.9585 0.262027 78.331C1.49194 62.7034 7.01949 47.7203 16.2336 35.0383C25.4476 22.3562 37.9893 12.4691 52.4719 6.47024C66.9546 0.471332 82.814 -1.40576 98.2969 1.04649C113.78 3.49874 128.283 10.1848 140.203 20.3655C152.123 30.5462 160.996 43.8249 165.84 58.7336L159.373 60.8349C154.916 47.1189 146.753 34.9025 135.787 25.5363C124.82 16.17 111.477 10.0188 97.2332 7.76277C82.9889 5.5067 68.3982 7.23362 55.0742 12.7526C41.7501 18.2716 30.2118 27.3677 21.7349 39.0352C13.2579 50.7027 8.17258 64.4871 7.04106 78.8645C5.90954 93.2419 8.77591 107.652 15.3233 120.502C21.8707 133.352 31.844 144.141 44.1406 151.676C56.4372 159.212 70.5782 163.2 85 163.2L85 170Z" fill="#FE5C52"/>
</svg>
