<svg width="30" height="30" viewBox="0 0 30 30" fill="none" xmlns="http://www.w3.org/2000/svg">
<g id="trophy_FILL0_wght400_GRAD0_opsz48 1">
<path id="Vector" d="M9.3125 26.25V24.375H14.0625V19.75C12.9375 19.5208 11.9375 19.0365 11.0625 18.2969C10.1875 17.5573 9.58333 16.6354 9.25 15.5312C7.70833 15.3646 6.40625 14.7396 5.34375 13.6562C4.28125 12.5729 3.75 11.2708 3.75 9.75V8.375C3.75 7.85417 3.93229 7.41146 4.29688 7.04688C4.66146 6.68229 5.10417 6.5 5.625 6.5H8.875V3.75H21.125V6.5H24.375C24.8958 6.5 25.3385 6.68229 25.7031 7.04688C26.0677 7.41146 26.25 7.85417 26.25 8.375V9.75C26.25 11.2708 25.7188 12.5729 24.6562 13.6562C23.5938 14.7396 22.2917 15.3646 20.75 15.5312C20.4167 16.6354 19.8125 17.5573 18.9375 18.2969C18.0625 19.0365 17.0625 19.5208 15.9375 19.75V24.375H20.6875V26.25H9.3125ZM8.875 13.5625V8.375H5.625V9.75C5.625 10.6875 5.93229 11.5052 6.54688 12.2031C7.16146 12.901 7.9375 13.3542 8.875 13.5625ZM15 17.9688C16.1875 17.9688 17.1927 17.5521 18.0156 16.7188C18.8385 15.8854 19.25 14.875 19.25 13.6875V5.625H10.75V13.6875C10.75 14.875 11.1615 15.8854 11.9844 16.7188C12.8073 17.5521 13.8125 17.9688 15 17.9688ZM21.125 13.5625C22.0625 13.3542 22.8385 12.901 23.4531 12.2031C24.0677 11.5052 24.375 10.6875 24.375 9.75V8.375H21.125V13.5625Z" fill="white"/>
</g>
</svg>
