<svg width="27" height="27" viewBox="0 0 27 27" fill="none" xmlns="http://www.w3.org/2000/svg">
<path id="Vector" d="M12.625 20.5C10.625 20.3958 8.9375 19.625 7.5625 18.1875C6.1875 16.75 5.5 15.0208 5.5 13C5.5 10.9167 6.22917 9.14583 7.6875 7.6875C9.14583 6.22917 10.9167 5.5 13 5.5C15.0208 5.5 16.75 6.1875 18.1875 7.5625C19.625 8.9375 20.3958 10.6354 20.5 12.6562L18.5312 12.0312C18.3021 10.6979 17.6771 9.58854 16.6562 8.70312C15.6354 7.81771 14.4167 7.375 13 7.375C11.4375 7.375 10.1094 7.92188 9.01562 9.01562C7.92188 10.1094 7.375 11.4375 7.375 13C7.375 14.3958 7.81771 15.6094 8.70312 16.6406C9.58854 17.6719 10.6979 18.3021 12.0312 18.5312L12.625 20.5ZM14.125 25.4375C13.9375 25.4583 13.75 25.474 13.5625 25.4844C13.375 25.4948 13.1875 25.5 13 25.5C11.2708 25.5 9.64583 25.1719 8.125 24.5156C6.60417 23.8594 5.28125 22.9688 4.15625 21.8438C3.03125 20.7188 2.14062 19.3958 1.48438 17.875C0.828125 16.3542 0.5 14.7292 0.5 13C0.5 11.2708 0.828125 9.64583 1.48438 8.125C2.14062 6.60417 3.03125 5.28125 4.15625 4.15625C5.28125 3.03125 6.60417 2.14062 8.125 1.48438C9.64583 0.828125 11.2708 0.5 13 0.5C14.7292 0.5 16.3542 0.828125 17.875 1.48438C19.3958 2.14062 20.7188 3.03125 21.8438 4.15625C22.9688 5.28125 23.8594 6.60417 24.5156 8.125C25.1719 9.64583 25.5 11.2708 25.5 13C25.5 13.1875 25.4948 13.375 25.4844 13.5625C25.474 13.75 25.4583 13.9375 25.4375 14.125L23.625 13.5625V13C23.625 10.0417 22.5938 7.53125 20.5312 5.46875C18.4688 3.40625 15.9583 2.375 13 2.375C10.0417 2.375 7.53125 3.40625 5.46875 5.46875C3.40625 7.53125 2.375 10.0417 2.375 13C2.375 15.9583 3.40625 18.4688 5.46875 20.5312C7.53125 22.5938 10.0417 23.625 13 23.625H13.5625L14.125 25.4375ZM23.6562 26.125L18.3125 20.7812L16.75 25.5L13 13L25.5 16.75L20.7812 18.3125L26.125 23.6562L23.6562 26.125Z" fill="white"/>
</svg>
